<svg xmlns="http://www.w3.org/2000/svg" version="1.1" xmlns:xlink="http://www.w3.org/1999/xlink" xmlns:svgjs="http://svgjs.com/svgjs" width="307" height="299"><svg width="307" height="299" viewBox="0 0 307 299" fill="none" xmlns="http://www.w3.org/2000/svg">
<path d="M273.644 208.669C273.56 208.398 273.46 208.113 273.356 207.825L255.946 160.138C255.845 159.904 255.761 159.683 255.674 159.469C253.086 152.909 248.589 147.276 242.765 143.296C236.941 139.316 230.058 137.172 223.003 137.142L220.595 137.158L222.815 136.332C223.003 136.265 223.203 136.181 223.254 136.164C236.683 130.934 245.657 117.712 245.569 103.178L245.067 52.5299C245.029 48.4664 244.034 44.4691 242.163 40.8616C240.291 37.2542 237.595 34.1383 234.294 31.7663C230.993 29.3944 227.179 27.8331 223.161 27.2091C219.144 26.585 215.036 26.9157 211.17 28.1744C210.885 28.2581 210.581 28.3585 210.296 28.4588L162.531 45.8872L162.347 45.9541C162.196 46.0046 162.049 46.0661 161.908 46.1382C155.714 48.5722 150.336 52.7091 146.395 58.0703C142.455 63.4315 140.114 69.7981 139.642 76.4336C133.92 63.9714 121.227 55.7626 107.379 55.9299L56.7042 56.4185C52.6392 56.4605 48.6412 57.4585 45.0338 59.3317C41.4264 61.2048 38.3109 63.9006 35.9395 67.2007C33.5681 70.5008 32.0074 74.3126 31.3837 78.3276C30.76 82.3425 31.0908 86.4479 32.3493 90.3113C32.433 90.5991 32.5335 90.8836 32.6339 91.1881L50.0714 138.908L50.1383 139.096C50.1902 139.245 50.2517 139.39 50.3225 139.531C52.9057 146.101 57.4014 151.745 63.2282 155.733C69.0551 159.722 75.9452 161.872 83.0076 161.905L85.3514 161.889L83.1784 162.695C83.0281 162.736 82.8823 162.792 82.7431 162.862C76.1305 165.478 70.462 170.029 66.4797 175.918C62.4974 181.807 60.3867 188.76 60.424 195.868L60.9296 246.5C60.9888 253.323 63.7453 259.845 68.5978 264.645C73.4502 269.444 80.0047 272.13 86.8313 272.117C89.547 272.129 92.2468 271.703 94.8268 270.856C95.1114 270.772 95.4161 270.672 95.7007 270.571L143.466 253.143L143.65 253.076C143.834 252.992 144.039 252.925 144.072 252.892C156.712 248.013 165.397 236.086 166.354 222.597C169.174 228.692 173.673 233.858 179.325 237.49C184.977 241.121 191.547 243.067 198.266 243.1L249.276 242.615C253.349 242.578 257.355 241.582 260.97 239.707C264.585 237.832 267.706 235.131 270.081 231.824C272.455 228.516 274.015 224.696 274.634 220.672C275.253 216.649 274.914 212.536 273.644 208.669V208.669ZM83.2788 140.776H83.1918C80.302 140.789 77.4776 139.917 75.0978 138.279C72.718 136.64 70.897 134.313 69.8793 131.61L52.4955 83.933C52.2351 83.2162 52.1505 82.4475 52.249 81.6913C52.3475 80.9352 52.6261 80.2137 53.0614 79.5875C53.4967 78.9612 54.076 78.4486 54.7507 78.0925C55.4253 77.7364 56.1756 77.5474 56.9385 77.5413L107.362 77.0359H107.781C110.632 77.0684 113.406 77.9614 115.74 79.5977C118.074 81.234 119.858 83.5373 120.859 86.2052L138.313 133.795C138.575 134.511 138.661 135.278 138.564 136.034C138.467 136.789 138.19 137.51 137.756 138.137C137.322 138.763 136.745 139.276 136.071 139.633C135.398 139.99 134.649 140.18 133.887 140.187L83.2788 140.776V140.776ZM145.331 220.19C145.328 223.055 144.446 225.849 142.806 228.198C141.166 230.547 138.846 232.337 136.157 233.329L88.4786 250.73C87.7614 250.997 86.9898 251.085 86.2311 250.985C85.4723 250.885 84.7496 250.601 84.1259 250.158C83.4971 249.726 82.9821 249.149 82.6247 248.475C82.2673 247.802 82.0782 247.052 82.0735 246.289L81.5679 195.758V195.524C81.5759 192.661 82.4583 189.869 84.0972 187.521C85.7361 185.173 88.0532 183.381 90.7386 182.386L138.353 164.927C138.888 164.725 139.456 164.622 140.027 164.623C140.988 164.624 141.924 164.923 142.706 165.479C143.335 165.912 143.85 166.49 144.207 167.164C144.564 167.838 144.753 168.588 144.758 169.351L145.348 219.916L145.331 220.19ZM167.674 134.083C166.956 134.347 166.185 134.434 165.426 134.337C164.667 134.24 163.943 133.962 163.314 133.527C162.685 133.091 162.17 132.511 161.813 131.835C161.456 131.159 161.267 130.407 161.262 129.642L160.689 78.9568C160.659 76.0684 161.525 73.2416 163.168 70.8651C164.811 68.4885 167.15 66.6788 169.863 65.6848L217.542 48.2832C218.069 48.0839 218.628 47.9808 219.192 47.9787C220.445 48.0026 221.64 48.5098 222.528 49.3942C223.415 50.2786 223.926 51.4717 223.953 52.724L224.442 103.255V103.49C224.44 106.352 223.562 109.144 221.926 111.493C220.29 113.841 217.973 115.633 215.288 116.628L167.674 134.083ZM252.969 219.417C252.537 220.048 251.958 220.564 251.282 220.922C250.606 221.28 249.853 221.469 249.088 221.472L198.413 221.974C195.53 221.995 192.71 221.125 190.339 219.484C187.969 217.843 186.163 215.51 185.168 212.805L167.697 165.218C167.436 164.504 167.35 163.738 167.446 162.984C167.542 162.23 167.817 161.509 168.249 160.884C168.681 160.258 169.257 159.744 169.928 159.386C170.599 159.028 171.346 158.837 172.107 158.827L222.715 158.224H223.003C225.863 158.231 228.652 159.113 230.996 160.751C233.339 162.39 235.124 164.707 236.111 167.39L253.521 215.064C253.713 215.581 253.809 216.129 253.806 216.68C253.812 217.658 253.517 218.614 252.959 219.417H252.969Z" fill="#065C91"></path>
</svg><style>@media (prefers-color-scheme: light) { :root { filter: none; } }
@media (prefers-color-scheme: dark) { :root { filter: contrast(1) brightness(1.2); } }
</style></svg>