<svg width="934" height="287" viewBox="0 0 934 287" fill="none" xmlns="http://www.w3.org/2000/svg">
<path d="M920.78 53.0164L900.355 176.759C899.715 180.538 897.675 183.938 894.641 186.281C891.607 188.625 887.801 189.741 883.981 189.407C880.16 189.072 876.606 187.313 874.026 184.478C871.445 181.643 870.026 177.941 870.053 174.108L871.415 49.1454V48.7242C871.448 45.3013 872.189 41.9222 873.59 38.7989C874.992 35.6756 877.024 32.8756 879.559 30.5745C882.095 28.2735 885.079 26.5211 888.324 25.4274C891.569 24.3337 895.005 23.9223 898.417 24.2189C901.829 24.5156 905.142 25.5139 908.15 27.1513C911.157 28.7886 913.794 31.0297 915.893 33.7337C917.993 36.4378 919.511 39.5465 920.352 42.8648C921.193 46.183 921.339 49.6392 920.78 53.0164Z" fill="#2BB97F"/>
<path d="M901.066 241.913C901.179 230.058 891.656 220.354 879.795 220.24C867.933 220.127 858.226 229.645 858.112 241.501C857.998 253.357 867.521 263.061 879.382 263.174C891.244 263.288 900.952 253.769 901.066 241.913Z" fill="#2BB97F"/>
<path d="M753.519 249.576C734.288 249.691 715.758 242.365 701.808 229.132C694.974 222.658 689.52 214.87 685.774 206.235C682.028 197.6 680.067 188.298 680.01 178.886V59.4327C679.878 57.3768 680.163 55.3155 680.849 53.3729C681.535 51.4304 682.608 49.647 684.003 48.1303C685.398 46.6136 687.086 45.395 688.965 44.5482C690.843 43.7013 692.874 43.2437 694.935 43.2029C696.996 43.1622 699.043 43.5391 700.954 44.311C702.865 45.083 704.6 46.2338 706.053 47.6942C707.507 49.1546 708.65 50.8942 709.412 52.8081C710.175 54.722 710.542 56.7704 710.491 58.8299C710.491 59.0296 710.491 59.2293 710.491 59.4327V178.879C710.509 184.171 711.615 189.403 713.74 194.25C715.865 199.097 718.963 203.457 722.843 207.058C731.18 214.817 742.149 219.131 753.541 219.131C764.933 219.131 775.902 214.817 784.239 207.058C788.119 203.457 791.217 199.097 793.342 194.25C795.466 189.403 796.572 184.171 796.591 178.879V59.4327C796.459 57.3768 796.744 55.3155 797.43 53.3729C798.117 51.4304 799.19 49.647 800.584 48.1303C801.979 46.6136 803.667 45.395 805.546 44.5482C807.424 43.7013 809.456 43.2437 811.516 43.2029C813.577 43.1622 815.624 43.5391 817.535 44.311C819.446 45.083 821.181 46.2338 822.634 47.6942C824.088 49.1546 825.231 50.8942 825.993 52.8081C826.756 54.722 827.123 56.7704 827.072 58.8299C827.072 59.0296 827.072 59.2293 827.072 59.4327V178.879C827.016 188.291 825.057 197.595 821.312 206.231C817.568 214.866 812.115 222.656 805.281 229.132C791.314 242.37 772.766 249.695 753.519 249.576Z" fill="#2BB97F"/>
<path d="M592.812 39.6497C560.029 32.024 526.13 46.7669 510.417 75.5991C509.426 77.3586 508.794 79.2974 508.558 81.3029C508.323 83.3084 508.488 85.3407 509.044 87.282C509.6 89.2232 510.537 91.0347 511.799 92.6114C513.061 94.188 514.624 95.4984 516.397 96.4666C518.17 97.4347 520.117 98.0413 522.127 98.2512C524.136 98.461 526.167 98.27 528.102 97.6891C530.037 97.1082 531.837 96.149 533.398 94.8672C534.959 93.5854 536.25 92.0066 537.196 90.2222C541.942 81.9332 549.271 75.4237 558.065 71.6866C566.858 67.9496 576.633 67.1901 585.899 69.524C605.099 73.9542 618.541 90.0079 618.541 108.502V122.914C604.415 113.88 587.799 109.53 571.057 110.483C554.314 111.435 538.299 117.642 525.29 128.22C517.82 134.451 511.812 142.249 507.693 151.06C503.933 159.107 501.984 167.881 501.984 176.762C501.984 185.644 503.933 194.417 507.693 202.464C511.789 211.284 517.801 219.081 525.29 225.287C539.392 236.981 557.172 243.321 575.494 243.189C590.857 243.264 605.906 238.846 618.788 230.479C619.389 234.256 621.391 237.667 624.396 240.033C627.401 242.4 631.188 243.548 635.002 243.248C638.815 242.949 642.376 241.224 644.975 238.417C647.573 235.61 649.018 231.928 649.021 228.105V108.393C649.021 75.5919 625.872 47.3625 592.812 39.6497ZM615.609 189.599V189.53C613.421 194.323 610.174 198.558 606.112 201.916C597.433 208.83 586.663 212.594 575.565 212.594C564.467 212.594 553.697 208.83 545.017 201.916C540.97 198.544 537.726 194.313 535.521 189.53C533.64 185.497 532.665 181.101 532.665 176.652C532.665 172.202 533.64 167.806 535.521 163.773C537.696 158.972 540.945 154.735 545.017 151.387C553.701 144.479 564.473 140.72 575.571 140.727C586.67 140.734 597.437 144.505 606.112 151.423C610.167 154.788 613.413 159.021 615.609 163.81C617.517 167.84 618.506 172.242 618.506 176.701C618.506 181.159 617.517 185.562 615.609 189.592V189.599Z" fill="#2BB97F"/>
<path d="M455.756 243.083C451.709 243.083 447.828 241.477 444.967 238.616C442.105 235.756 440.498 231.877 440.498 227.832V108.397C440.474 103.134 439.377 97.9307 437.274 93.1057C435.171 88.2808 432.106 83.9351 428.266 80.3342C419.928 72.5747 408.959 68.2606 397.567 68.2606C386.175 68.2606 375.206 72.5747 366.869 80.3342C362.997 83.9403 359.906 88.301 357.785 93.1474C355.664 97.9938 354.559 103.223 354.539 108.513V227.981C354.531 229.989 354.127 231.975 353.352 233.827C352.576 235.679 351.442 237.359 350.017 238.773C348.591 240.187 346.9 241.307 345.042 242.068C343.183 242.829 341.193 243.217 339.184 243.209C337.176 243.201 335.188 242.798 333.336 242.022C331.483 241.247 329.801 240.114 328.387 238.689C326.972 237.264 325.852 235.574 325.091 233.716C324.329 231.858 323.941 229.869 323.949 227.861V108.397C324.003 98.9846 325.962 89.6809 329.708 81.0457C333.454 72.4105 338.91 64.6225 345.747 58.1508C359.75 44.9974 378.244 37.6748 397.46 37.6748C416.676 37.6748 435.17 44.9974 449.173 58.1508C456.005 64.6253 461.455 72.4144 465.196 81.0494C468.937 89.6844 470.892 98.9868 470.942 108.397V227.843C470.939 231.874 469.34 235.739 466.495 238.595C463.649 241.45 459.788 243.064 455.756 243.083Z" fill="#2BB97F"/>
<path d="M276.082 207.708C275.991 207.414 275.882 207.105 275.773 206.793L256.882 155.047C256.773 154.793 256.682 154.553 256.591 154.321C253.785 147.196 248.906 141.075 242.584 136.75C236.262 132.425 228.787 130.095 221.126 130.061L218.514 130.079L220.927 129.185C221.126 129.113 221.344 129.022 221.399 129.004C235.974 123.328 245.707 108.981 245.616 93.2106L245.067 38.2479C245.022 33.842 243.939 29.5087 241.906 25.5987C239.874 21.6888 236.949 18.312 233.369 15.7416C229.788 13.1712 225.653 11.4794 221.297 10.8031C216.941 10.1268 212.487 10.485 208.295 11.8487C207.986 11.9395 207.655 12.0484 207.347 12.1573L155.519 31.0689L155.319 31.1415C155.156 31.197 154.997 31.2638 154.843 31.3413C148.123 33.9832 142.288 38.4723 138.013 44.2897C133.737 50.107 131.197 57.015 130.684 64.215C124.476 50.6922 110.703 41.7848 95.6772 41.9663L40.6891 42.4856C36.278 42.5328 31.9399 43.6172 28.026 45.6511C24.112 47.685 20.7319 50.6112 18.1593 54.1931C15.5867 57.7749 13.8938 61.9118 13.2176 66.269C12.5413 70.6262 12.9007 75.0813 14.2667 79.2738C14.3575 79.5861 14.4701 79.8948 14.5791 80.2252L33.4958 132.007L33.5685 132.21C33.6271 132.371 33.695 132.529 33.7719 132.682C36.5766 139.808 41.4551 145.929 47.7767 150.253C54.0984 154.578 61.5725 156.909 69.2331 156.943L71.7761 156.925L69.422 157.8C69.2576 157.844 69.0981 157.905 68.9461 157.981C61.772 160.82 55.6224 165.757 51.3021 172.147C46.9818 178.536 44.692 186.081 44.7325 193.793L45.2956 248.741C45.3599 256.141 48.3489 263.216 53.611 268.423C58.8731 273.63 65.9813 276.545 73.3855 276.535C76.3308 276.545 79.2588 276.083 82.0574 275.166C82.3698 275.075 82.6968 274.966 83.0092 274.857L134.833 255.945L135.033 255.873C135.189 255.815 135.342 255.748 135.491 255.673C149.205 250.379 158.629 237.437 159.668 222.799C162.727 229.414 167.609 235.02 173.741 238.96C179.874 242.901 187.003 245.012 194.293 245.048L249.645 244.518C254.061 244.477 258.405 243.396 262.325 241.363C266.244 239.33 269.629 236.401 272.205 232.815C274.78 229.23 276.473 225.087 277.147 220.725C277.82 216.363 277.456 211.903 276.082 207.708ZM69.5273 134.033H69.4365C66.3008 134.048 63.2357 133.103 60.6533 131.325C58.071 129.547 56.0953 127.021 54.9919 124.087L36.1007 72.3563C35.8181 71.5786 35.7264 70.7444 35.8333 69.9239C35.9401 69.1034 36.2424 68.3205 36.7147 67.641C37.1871 66.9614 37.8156 66.4051 38.5477 66.0188C39.2797 65.6324 40.0938 65.4273 40.9216 65.4206L95.6337 64.8723H96.0914C99.1841 64.9073 102.194 65.8762 104.726 67.6519C107.258 69.4275 109.193 71.9269 110.278 74.8219L129.235 126.458C129.519 127.235 129.612 128.068 129.507 128.887C129.401 129.707 129.101 130.49 128.63 131.169C128.16 131.849 127.533 132.406 126.802 132.793C126.072 133.18 125.259 133.386 124.432 133.394L69.5201 134.033H69.5273ZM136.857 220.207C136.853 223.314 135.897 226.346 134.118 228.894C132.339 231.443 129.822 233.386 126.906 234.463L75.1693 253.345C74.3901 253.627 73.5549 253.718 72.7332 253.611C71.9116 253.505 71.1275 253.203 70.4464 252.731C69.7654 252.259 69.2072 251.631 68.8185 250.9C68.4299 250.169 68.222 249.355 68.2122 248.527L67.6636 193.695V193.441C67.6726 190.334 68.6306 187.304 70.4095 184.756C72.1885 182.208 74.7034 180.264 77.6179 179.184L129.278 160.236C129.86 160.02 130.475 159.91 131.095 159.91C132.137 159.908 133.153 160.233 134.001 160.839C134.685 161.308 135.246 161.935 135.635 162.668C136.024 163.4 136.23 164.215 136.235 165.044L136.875 219.916L136.857 220.207ZM161.088 126.771C160.309 127.057 159.473 127.151 158.649 127.046C157.826 126.941 157.04 126.64 156.358 126.167C155.676 125.695 155.117 125.065 154.73 124.331C154.342 123.598 154.137 122.782 154.131 121.952L153.51 66.953C153.479 63.8166 154.421 60.7476 156.207 58.1686C157.993 55.5895 160.535 53.6271 163.482 52.5514L215.216 33.6689C215.994 33.3941 216.827 33.3083 217.645 33.4186C218.463 33.5289 219.243 33.832 219.921 34.3031C220.599 34.7742 221.155 35.3996 221.543 36.1278C221.932 36.856 222.141 37.6661 222.154 38.4912L222.699 93.3232V93.5774C222.697 96.6827 221.744 99.713 219.968 102.261C218.193 104.81 215.68 106.754 212.767 107.834L161.088 126.771ZM253.637 219.368C253.169 220.05 252.542 220.608 251.811 220.996C251.08 221.383 250.266 221.589 249.438 221.594L194.453 222.142C191.324 222.164 188.265 221.221 185.693 219.44C183.12 217.659 181.161 215.128 180.081 212.192L161.125 160.556C160.841 159.781 160.748 158.95 160.852 158.131C160.956 157.313 161.255 156.531 161.724 155.852C162.192 155.173 162.817 154.616 163.545 154.228C164.273 153.839 165.084 153.631 165.909 153.62L220.825 152.981H221.134C224.237 152.988 227.264 153.945 229.808 155.724C232.351 157.502 234.289 160.016 235.36 162.927L254.251 214.658C254.462 215.217 254.568 215.811 254.564 216.408C254.566 217.466 254.242 218.499 253.637 219.368Z" fill="#2BB97F"/>
</svg>
